<?xml version="1.0" encoding="UTF-8" standalone="no"?>
<svg
   xmlns:dc="http://purl.org/dc/elements/1.1/"
   xmlns:cc="http://creativecommons.org/ns#"
   xmlns:rdf="http://www.w3.org/1999/02/22-rdf-syntax-ns#"
   xmlns:svg="http://www.w3.org/2000/svg"
   xmlns="http://www.w3.org/2000/svg"
   xmlns:sodipodi="http://sodipodi.sourceforge.net/DTD/sodipodi-0.dtd"
   xmlns:inkscape="http://www.inkscape.org/namespaces/inkscape"
   width="64"
   height="64"
   viewBox="0 0 16.933333 16.933334"
   version="1.1"
   id="svg8"
   inkscape:version="0.92.3 (2405546, 2018-03-11)"
   sodipodi:docname="29-Choice.svg"
   inkscape:export-filename="/home/wanzabuyumna/@WANZ_DESIGN/NICON STUDIO MAGANG/Style Line/Style Line/Icon 8/Icon 8.png"
   inkscape:export-xdpi="96"
   inkscape:export-ydpi="96">
  <defs
     id="defs2" />
  <sodipodi:namedview
     id="base"
     pagecolor="#ffffff"
     bordercolor="#959595"
     borderopacity="1"
     inkscape:pageopacity="0"
     inkscape:pageshadow="2"
     inkscape:zoom="22.627416"
     inkscape:cx="27.709022"
     inkscape:cy="7.2416321"
     inkscape:document-units="px"
     inkscape:current-layer="layer1"
     inkscape:document-rotation="0"
     showgrid="false"
     units="px"
     inkscape:window-width="1920"
     inkscape:window-height="1040"
     inkscape:window-x="0"
     inkscape:window-y="0"
     inkscape:window-maximized="1"
     inkscape:pagecheckerboard="0" />
  <metadata
     id="metadata5">
    <rdf:RDF>
      <cc:Work
         rdf:about="">
        <dc:format>image/svg+xml</dc:format>
        <dc:type
           rdf:resource="http://purl.org/dc/dcmitype/StillImage" />
      </cc:Work>
    </rdf:RDF>
  </metadata>
  <g
     inkscape:label="29-Choice"
     inkscape:groupmode="layer"
     id="layer1">
    <path
       style="color:#000000;font-style:normal;font-variant:normal;font-weight:normal;font-stretch:normal;font-size:medium;line-height:normal;font-family:sans-serif;font-variant-ligatures:normal;font-variant-position:normal;font-variant-caps:normal;font-variant-numeric:normal;font-variant-alternates:normal;font-feature-settings:normal;text-indent:0;text-align:start;text-decoration:none;text-decoration-line:none;text-decoration-style:solid;text-decoration-color:#000000;letter-spacing:normal;word-spacing:normal;text-transform:none;writing-mode:lr-tb;direction:ltr;text-orientation:mixed;dominant-baseline:auto;baseline-shift:baseline;text-anchor:start;white-space:normal;shape-padding:0;clip-rule:nonzero;display:inline;overflow:visible;visibility:visible;opacity:1;isolation:auto;mix-blend-mode:normal;color-interpolation:sRGB;color-interpolation-filters:linearRGB;solid-color:#000000;solid-opacity:1;vector-effect:none;fill:#000000;fill-opacity:1;fill-rule:nonzero;stroke:none;stroke-width:0.52916694;stroke-linecap:round;stroke-linejoin:round;stroke-miterlimit:4;stroke-dasharray:none;stroke-dashoffset:0;stroke-opacity:1;color-rendering:auto;image-rendering:auto;shape-rendering:auto;text-rendering:auto;enable-background:accumulate"
       d="m 0.79478656,0.5292025 c -0.14612,-5.6e-4 -0.26503,0.11743001 -0.26562,0.26355001 V 3.7052328 c 5.9e-4,0.1461198 0.1195,0.26411 0.26562,0.2635498 H 3.7051966 c 0.14532,-5.82e-4 0.2629699,-0.1182399 0.2635501,-0.2635498 V 0.79275251 C 3.9681665,0.64743251 3.8505166,0.5297825 3.7051966,0.5292025 Z m 12.43541044,0 c -0.14612,-5.6e-4 -0.26502,0.11743001 -0.26561,0.26355001 V 3.7052328 c 5.82e-4,0.1461198 0.11949,0.26411 0.26561,0.2635498 h 2.91042 c 0.14532,-5.82e-4 0.26297,-0.1182399 0.26355,-0.2635498 V 0.79275251 c -5.8e-4,-0.14532 -0.11823,-0.26297001 -0.26355,-0.26355001 z M 1.8474365,1.5839226 c 0.0714,0 0.13985,0.0289 0.18965,0.0801 l 0.21187,0.21188 0.21239,-0.21188 c 0.0497,-0.0511 0.1178401,-0.0799 0.18914,-0.0801 0.2381501,3e-5 0.3550701,0.29011 0.18345,0.45527 l -0.21084,0.21083 0.20877,0.20878 c 0.2705201,0.24959 -0.12618,0.64465 -0.37465,0.3731 l -0.20826,-0.20774 -0.20774,0.20774 c -0.24866,0.26032 -0.63411,-0.12301 -0.37517,-0.3731 l 0.20877,-0.20878 -0.21084,-0.21083 c -0.17163,-0.16516 -0.0547,-0.45524 0.18346,-0.45527 z m 13.9210505,0.48056 -1.05885,0.79271 c -0.105492,0.078731 -0.252814,0.06795 -0.34572,-0.0253 l -0.52916,-0.5271 c -0.248975,-0.2501126 0.125057,-0.6241452 0.37517,-0.37517 l 0.3669,0.36742 0.8754,-0.65629 c 0.03996,-0.03115 0.08803,-0.05017 0.1527,-0.055315 0.268807,0.00421 0.370456,0.3305998 0.16356,0.479045 z m -7.3018204,0.84594 c -1.3155301,2e-5 -2.3812199,1.05694 -2.38022,2.3807301 l 5.291e-4,0.26407 0.2656203,5.292e-4 c 0.3538098,5.292e-4 0.7071299,-0.2524699 0.7994298,-0.5968698 0.0426,-0.1620203 0.2230001,-0.2441102 0.3731001,-0.1700102 0.3075199,0.15035 0.60901,0.2387399 0.9415499,0.2387399 0.3325501,0 0.63402,-0.0884 0.9415397,-0.2387399 0.1501,-0.0741 0.33051,0.008 0.37311,0.1700102 0.0923,0.3443999 0.4456115,0.5973998 0.7994305,0.5968698 l 0.26562,-5.292e-4 5.3e-4,-0.26407 C 10.847887,3.9673626 9.7821865,2.9104426 8.4666666,2.9104226 Z m -0.91674,2.46703 C 7.3553367,5.7280528 7.0119265,5.9734327 6.6156167,6.0580327 v 0.5730901 c 0,1.0200299 0.8294299,1.8355498 1.8510499,1.8355498 1.0216099,0 1.8510504,-0.8155199 1.8510504,-1.8355498 V 6.0580327 C 9.9214065,5.9734327 9.5779965,5.7280528 9.3834065,5.3774526 9.0866166,5.4998727 8.7561866,5.5567727 8.4666666,5.5567727 c -0.2895299,0 -0.61995,-0.0569 -0.91674,-0.1793201 z m -1.46348,0.7074501 c -0.29513,2.91e-4 -0.5291601,0.2401599 -0.5291601,0.5291701 0,0.2891798 0.2343002,0.5291699 0.52968,0.5291699 h 0.0558 c -0.0366,-0.16515 -0.0563,-0.3359899 -0.0563,-0.5121199 z m 4.7604404,0.5462201 c 0,0.17613 -0.0197,0.3469699 -0.0563,0.5121199 h 0.0558 c 0.29538,0 0.52968,-0.2399901 0.52968,-0.5291699 0,-0.2890102 -0.23403,-0.5288801 -0.52917,-0.5291701 z M 3.9702966,6.0854319 2.3812465,7.4078321 3.9702966,8.7312621 V 8.2031228 C 3.969741,8.0569526 4.0881965,7.9380327 4.2343667,7.9375028 h 1.0562698 c 0.5817802,-1.101e-4 1.0588501,0.4692899 1.0588501,1.0583399 v 0.3452001 l 0.6836701,-0.31988 c 0.0346,-0.016301 0.0721,-0.024199 0.1100799,-0.024299 V 8.5989527 C 6.7937067,8.3721029 6.5135465,8.0480727 6.3282966,7.6734327 H 6.0869665 c -0.4903298,0 -0.90639,-0.3375699 -1.02474,-0.79479 H 4.2343667 C 4.0889567,6.8781399 3.9707967,6.7605028 3.9702966,6.6150928 Z m 8.9927404,0 v 0.5296802 c -5.02e-4,0.14541 -0.11866,0.2630498 -0.26407,0.2635499 h -0.82786 c -0.11835,0.45721 -0.53441,0.7947901 -1.02474,0.7947901 h -0.24133 C 10.419787,8.048092 10.139627,8.3721219 9.7900965,8.598972 v 0.3979008 c 0.038,10e-5 0.0756,0.008 0.11007,0.024299 l 0.6836805,0.3198805 v -0.3452 c 0,-0.5890501 0.47707,-1.0584501 1.05885,-1.05834 h 1.05627 c 0.14617,5.292e-4 0.26463,0.1194499 0.26407,0.26562 v 0.52813 l 1.58905,-1.3234302 z M 7.6729166,8.8619927 v 0.5524301 l 0.6407901,0.6397502 h 0.30592 L 9.2604165,9.4144228 V 8.8619927 c -0.2412597,0.0848 -0.4993499,0.1308499 -0.7937499,0.13385 -0.2944098,-0.003 -0.55249,-0.049 -0.79375,-0.13385 z m -0.5834298,0.71624 -0.4134102,0.1937901 0.4232299,0.5281302 c 0.1225201,-0.12869 0.2885202,-0.21326 0.4759402,-0.23616 z m 2.7543597,0 -0.48576,0.4857603 c 0.18742,0.0229 0.35342,0.10747 0.47594,0.23616 L 10.257257,9.7720228 Z m -3.66128,0.4247803 -0.4015298,0.1881 c -0.30807,0.14841 -0.5765202,0.27473 -0.76171,0.42013 -0.1851901,0.1454 -0.2922802,0.28924 -0.3322802,0.54105 l -0.1622599,1.01855 h 0.5023001 c 5.556e-4,-0.58127 0.46439,-1.05782 1.0604,-1.05782 h 0.7916799 v -0.23875 z m 4.5682005,0 -0.6966,0.87126 v 0.23875 h 0.79168 c 0.596,0 1.05984,0.47655 1.0604,1.05782 h 0.5023 l -0.16227,-1.01855 c -0.04,-0.25181 -0.14709,-0.39565 -0.33228,-0.54105 -0.18519,-0.14539 -0.45364,-0.27172 -0.76171,-0.42013 z m -3.0783703,0.58033 c -0.14385,0 -0.2635502,0.11446 -0.2635502,0.26561 v 0.26407 h 2.11564 v -0.26407 c 0,-0.15115 -0.1197,-0.26561 -0.26355,-0.26561 -0.5545042,4.42e-4 -1.0466692,0 -1.5885398,0 z m -1.58491,1.05936 c -0.29775,0 -0.53124,0.23557 -0.53124,0.52917 v 0.045 c 0.3058999,0.10914 0.5286499,0.40045 0.5286499,0.74672 0,0.20513 -0.075,0.38953 -0.2020501,0.5302 0.0568,0.0625 0.1028602,0.13554 0.1374601,0.21394 0.1676201,0.14384 0.36841,0.24172 0.5942801,0.28732 v -0.23719 c 5.82e-4,-0.14612 0.11948,-0.26411 0.2656099,-0.26355 h 1.0583399 c 0.1455201,2.91e-4 0.2634801,0.11803 0.26406,0.26355 v 0.26562 h 0.5281401 v -0.26562 c 5.821e-4,-0.14552 0.11854,-0.26326 0.26406,-0.26355 h 1.0583404 c 0.14613,-5.55e-4 0.26502,0.11743 0.26561,0.26355 v 0.23719 c 0.22586,-0.0456 0.42666,-0.14348 0.59428,-0.28732 0.0346,-0.0784 0.0808,-0.15144 0.13746,-0.21394 -0.12706,-0.14067 -0.20205,-0.32506 -0.20205,-0.5302 0,-0.34627 0.22275,-0.63758 0.52865,-0.74672 v -0.045 c 0,-0.2936 -0.2335,-0.52917 -0.53124,-0.52917 z m -1.5885401,1.0573 c -0.15118,0 -0.26561,0.11968 -0.26561,0.26355 0,0.14387 0.11443,0.26562 0.26561,0.26562 h 0.79117 c 0.15118,0 0.26562,-0.12175 0.26562,-0.26562 0,-0.14387 -0.11444,-0.26355 -0.26562,-0.26355 z m 7.1442704,0 c -0.15118,0 -0.26562,0.11968 -0.26562,0.26355 0,0.14387 0.11444,0.26562 0.26562,0.26562 h 0.79117 c 0.15118,0 0.26561,-0.12175 0.26561,-0.26562 0,-0.14387 -0.11443,-0.26355 -0.26561,-0.26355 z m -7.1442704,1.05937 c -0.15118,0 -0.26561,0.11968 -0.26561,0.26355 0,0.14387 0.11443,0.26562 0.26561,0.26562 h 0.79117 c 0.15118,0 0.26562,-0.12175 0.26562,-0.26562 0,-0.14387 -0.11444,-0.26355 -0.26562,-0.26355 z m 7.1442704,0 c -0.15118,0 -0.26562,0.11968 -0.26562,0.26355 0,0.14387 0.11444,0.26562 0.26562,0.26562 h 0.79117 c 0.15118,0 0.26561,-0.12175 0.26561,-0.26562 0,-0.14387 -0.11443,-0.26355 -0.26561,-0.26355 z m -4.4994703,0.26407 v 0.52916 h 0.5291699 v -0.52916 z m 2.1166698,0 v 0.52916 h 0.52917 v -0.52916 z m -3.3770599,0.52813 c 0.12684,0.14004 0.20154,0.32471 0.20154,0.52968 0,0.34628 -0.2134499,0.63328 -0.5286499,0.74931 v 0.0444 c 0,0.28897 0.2319499,0.52917 0.52969,0.52917 h 4.7614603 c 0.29774,0 0.52969,-0.2402 0.52969,-0.52917 v -0.0444 c -0.3152,-0.11603 -0.52865,-0.40303 -0.52865,-0.74931 0,-0.20497 0.0747,-0.38964 0.20153,-0.52968 -0.0573,-0.0636 -0.1013,-0.13052 -0.13591,-0.21032 -0.18284,0.0963 -0.38194,0.16102 -0.59427,0.19172 l -10e-4,0.28318 c 5.56e-4,0.14693 -0.11868,0.26618 -0.26561,0.26562 H 8.9948313 c -0.14633,-2.91e-4 -0.2646199,-0.1193 -0.26406,-0.26562 v -0.26355 H 8.2026315 v 0.26355 c 5.556e-4,0.14632 -0.1177402,0.26533 -0.26406,0.26562 H 6.8802312 c -0.14693,5.56e-4 -0.2661599,-0.11869 -0.2656099,-0.26562 l -0.00101,-0.28318 c -0.2123302,-0.0307 -0.4114501,-0.0954 -0.5943124,-0.19172 -0.034632,0.0798 -0.078632,0.14672 -0.1359423,0.21032 z m -1.1224101,0.2651 c -0.14981,0.002 -0.26303,0.12159 -0.26303,0.26458 0,0.14387 0.11444,0.26407 0.26562,0.26407 h 0.5265801 c 0.15118,0 0.2661301,-0.12175 0.2661301,-0.26562 0,-0.14333 -0.1140002,-0.26213 -0.2651001,-0.26303 z m 6.8812405,0 c -0.1511,9e-4 -0.2651,0.11971 -0.2651,0.26303 0,0.14387 0.11495,0.26562 0.26613,0.26562 h 0.52658 c 0.15118,0 0.26562,-0.1202 0.26562,-0.26407 0,-0.14299 -0.11323,-0.26258 -0.26303,-0.26458 z"
       id="path7318"
       inkscape:connector-curvature="0"
       sodipodi:nodetypes="ccccccccccccccccccccccccccccccccccccccccccccccccccccccccccccccccccccccccccccccccccccccccccccccccccccccccccccccccccccccccccccccccccccccccccccccccccccccccccccccccccccccccccccccccccccccccccccccccccccccccccccccccccccccccccccccccccccccccccccccccccccccccccccccccc" />
  </g>
</svg>
